<svg width="37" height="37" viewBox="0 0 37 37" fill="none" xmlns="http://www.w3.org/2000/svg">
<path d="M18.5 34.6875L8.74589 23.184C8.61035 23.0112 8.47622 22.8374 8.34351 22.6625C6.67733 20.4677 5.77722 17.7869 5.78126 15.0312C5.78126 11.658 7.12127 8.42296 9.5065 6.03774C11.8917 3.65251 15.1268 2.3125 18.5 2.3125C21.8732 2.3125 25.1083 3.65251 27.4935 6.03774C29.8788 8.42296 31.2188 11.658 31.2188 15.0312C31.2228 17.7856 30.3231 20.4652 28.6577 22.659L28.6565 22.6625C28.6565 22.6625 28.3096 23.1181 28.2576 23.1793L18.5 34.6875ZM10.1889 21.2692C10.1912 21.2692 10.4595 21.6253 10.5207 21.7017L18.5 31.1124L26.4897 21.6889C26.5406 21.6253 26.8111 21.2669 26.8123 21.2658C28.1734 19.4725 28.9089 17.2825 28.9063 15.0312C28.9063 12.2713 27.8099 9.62447 25.8583 7.67292C23.9068 5.72137 21.2599 4.625 18.5 4.625C15.7401 4.625 13.0932 5.72137 11.1417 7.67292C9.19013 9.62447 8.09376 12.2713 8.09376 15.0312C8.09134 17.2839 8.82772 19.4752 10.19 21.2692H10.1889Z" fill="#D9B8B4"/>
<path d="M24.2812 20.8125H21.9688V11.5625H15.0312V20.8125H12.7188V11.5625C12.7194 10.9494 12.9632 10.3615 13.3967 9.92799C13.8303 9.49445 14.4181 9.25061 15.0312 9.25H21.9688C22.5819 9.25061 23.1697 9.49445 23.6033 9.92799C24.0368 10.3615 24.2806 10.9494 24.2812 11.5625V20.8125Z" fill="#D9B8B4"/>
<path d="M17.3438 18.5H19.6562V20.8125H17.3438V18.5Z" fill="#D9B8B4"/>
<path d="M17.3438 13.875H19.6562V16.1875H17.3438V13.875Z" fill="#D9B8B4"/>
</svg>
