<svg width="11" height="11" viewBox="0 0 11 11" fill="none" xmlns="http://www.w3.org/2000/svg">
<path d="M0 8.70762V9.625C0 10.3834 1.84766 11 4.125 11C6.40234 11 8.25 10.3834 8.25 9.625V8.70762C7.3627 9.33281 5.74062 9.625 4.125 9.625C2.50938 9.625 0.887305 9.33281 0 8.70762ZM6.875 2.75C9.15234 2.75 11 2.1334 11 1.375C11 0.616602 9.15234 0 6.875 0C4.59766 0 2.75 0.616602 2.75 1.375C2.75 2.1334 4.59766 2.75 6.875 2.75ZM0 6.45391V7.5625C0 8.3209 1.84766 8.9375 4.125 8.9375C6.40234 8.9375 8.25 8.3209 8.25 7.5625V6.45391C7.3627 7.18437 5.73848 7.5625 4.125 7.5625C2.51152 7.5625 0.887305 7.18437 0 6.45391ZM8.9375 6.69023C10.1686 6.45176 11 6.00918 11 5.5V4.58262C10.5016 4.93496 9.76895 5.17559 8.9375 5.32383V6.69023ZM4.125 3.4375C1.84766 3.4375 0 4.20664 0 5.15625C0 6.10586 1.84766 6.875 4.125 6.875C6.40234 6.875 8.25 6.10586 8.25 5.15625C8.25 4.20664 6.40234 3.4375 4.125 3.4375ZM8.83652 4.64707C10.1256 4.41504 11 3.95957 11 3.4375V2.52012C10.2373 3.05938 8.92676 3.34941 7.54746 3.41816C8.18125 3.72539 8.64746 4.13789 8.83652 4.64707Z" fill="#FFD24D"/>
</svg>
