<svg width="31" height="25" viewBox="0 0 31 25" fill="none" xmlns="http://www.w3.org/2000/svg">
<path d="M0 21.875C0 22.7378 0.694109 23.4375 1.55 23.4375H29.45C30.3059 23.4375 31 22.7378 31 21.875V6.25H0V21.875ZM21.7 11.7188C21.7 11.2871 22.0468 10.9375 22.475 10.9375H27.125C27.5532 10.9375 27.9 11.2871 27.9 11.7188V13.2812C27.9 13.7129 27.5532 14.0625 27.125 14.0625H22.475C22.0468 14.0625 21.7 13.7129 21.7 13.2812V11.7188ZM21.7 17.5781C21.7 17.3623 21.8734 17.1875 22.0875 17.1875H27.5125C27.7266 17.1875 27.9 17.3623 27.9 17.5781V18.3594C27.9 18.5752 27.7266 18.75 27.5125 18.75H22.0875C21.8734 18.75 21.7 18.5752 21.7 18.3594V17.5781ZM3.1 12.8906C3.1 12.6748 3.27341 12.5 3.4875 12.5H18.2125C18.4266 12.5 18.6 12.6748 18.6 12.8906V13.6719C18.6 13.8877 18.4266 14.0625 18.2125 14.0625H3.4875C3.27341 14.0625 3.1 13.8877 3.1 13.6719V12.8906ZM3.1 17.5781C3.1 17.3623 3.27341 17.1875 3.4875 17.1875H12.0125C12.2266 17.1875 12.4 17.3623 12.4 17.5781V18.3594C12.4 18.5752 12.2266 18.75 12.0125 18.75H3.4875C3.27341 18.75 3.1 18.5752 3.1 18.3594V17.5781ZM30.225 1.5625H0.775C0.346812 1.5625 0 1.91211 0 2.34375V4.6875H31V2.34375C31 1.91211 30.6532 1.5625 30.225 1.5625Z" fill="#9E050E"/>
</svg>
