<svg width="24" height="25" viewBox="0 0 24 25" fill="none" xmlns="http://www.w3.org/2000/svg">
<path d="M14.6532 25H10.1032C9.81807 25 9.54153 24.9026 9.3194 24.7239C9.09728 24.5452 8.94291 24.296 8.8819 24.0175L8.37315 21.6625C7.69447 21.3651 7.05094 20.9933 6.4544 20.5538L4.15815 21.285C3.88635 21.3717 3.59309 21.3628 3.32705 21.2598C3.06101 21.1568 2.83822 20.9659 2.69565 20.7188L0.415651 16.78C0.274583 16.5327 0.221629 16.2448 0.265454 15.9634C0.309279 15.6821 0.447287 15.424 0.656901 15.2313L2.43815 13.6063C2.35715 12.8701 2.35715 12.1274 2.43815 11.3912L0.656901 9.77C0.446991 9.57722 0.308795 9.31884 0.264963 9.03723C0.221131 8.75561 0.274263 8.46746 0.415651 8.22L2.69065 4.27875C2.83321 4.03164 3.05601 3.84074 3.32205 3.73773C3.58809 3.63473 3.88136 3.62583 4.15315 3.7125L6.4494 4.44375C6.7544 4.21875 7.0719 4.00875 7.3994 3.81875C7.71565 3.64125 8.04065 3.48 8.37315 3.33625L8.88315 0.98375C8.94387 0.705247 9.09794 0.45586 9.31983 0.276936C9.54173 0.0980123 9.81811 0.000299957 10.1032 0H14.6532C14.9382 0.000299957 15.2146 0.0980123 15.4365 0.276936C15.6584 0.45586 15.8124 0.705247 15.8732 0.98375L16.3882 3.3375C17.0664 3.63487 17.7096 4.00674 18.3057 4.44625L20.6031 3.715C20.8748 3.62865 21.1678 3.63771 21.4335 3.7407C21.6993 3.84369 21.9219 4.03441 22.0644 4.28125L24.3394 8.2225C24.6294 8.73125 24.5294 9.375 24.0982 9.77125L22.3169 11.3962C22.3979 12.1324 22.3979 12.8751 22.3169 13.6112L24.0982 15.2362C24.5294 15.6337 24.6294 16.2763 24.3394 16.785L22.0644 20.7262C21.9218 20.9734 21.699 21.1643 21.433 21.2673C21.167 21.3703 20.8737 21.3792 20.6019 21.2925L18.3057 20.5612C17.7096 21.0004 17.0664 21.3719 16.3882 21.6687L15.8732 24.0175C15.8122 24.2958 15.658 24.5449 15.4361 24.7236C15.2143 24.9022 14.938 24.9998 14.6532 25ZM6.90315 17.7863L7.92815 18.5363C8.1594 18.7063 8.3994 18.8625 8.6494 19.005C8.8844 19.1413 9.1244 19.2638 9.37315 19.375L10.5394 19.8862L11.1107 22.5H13.6482L14.2194 19.885L15.3857 19.3738C15.8944 19.1488 16.3782 18.87 16.8269 18.5413L17.8519 17.7913L20.4044 18.6037L21.6732 16.4062L19.6944 14.6025L19.8344 13.3375C19.8969 12.7838 19.8969 12.225 19.8344 11.6725L19.6944 10.4075L21.6744 8.6L20.4044 6.40125L17.8532 7.21375L16.8269 6.46375C16.3779 6.13336 15.8947 5.85217 15.3857 5.625L14.2194 5.11375L13.6482 2.5H11.1107L10.5357 5.115L9.37315 5.625C8.86338 5.84826 8.38 6.12747 7.9319 6.4575L6.90565 7.2075L4.35565 6.395L3.0844 8.6L5.06315 10.4012L4.92315 11.6675C4.86065 12.2212 4.86065 12.78 4.92315 13.3325L5.06315 14.5975L3.0844 16.4013L4.35315 18.5987L6.90315 17.7863ZM12.3732 17.5C11.0471 17.5 9.7753 16.9732 8.83762 16.0355C7.89994 15.0979 7.37315 13.8261 7.37315 12.5C7.37315 11.1739 7.89994 9.90215 8.83762 8.96447C9.7753 8.02678 11.0471 7.5 12.3732 7.5C13.6992 7.5 14.971 8.02678 15.9087 8.96447C16.8464 9.90215 17.3732 11.1739 17.3732 12.5C17.3732 13.8261 16.8464 15.0979 15.9087 16.0355C14.971 16.9732 13.6992 17.5 12.3732 17.5ZM12.3732 10C11.8836 10.0005 11.405 10.1447 10.9966 10.4148C10.5883 10.6848 10.2682 11.0688 10.0762 11.5191C9.88407 11.9694 9.82843 12.4662 9.91612 12.9478C10.0038 13.4295 10.231 13.8747 10.5695 14.2284C10.9079 14.5821 11.3428 14.8287 11.8201 14.9375C12.2974 15.0463 12.7962 15.0125 13.2545 14.8405C13.7128 14.6684 14.1105 14.3655 14.3982 13.9694C14.686 13.5734 14.8511 13.1016 14.8732 12.6125V13.1125V12.5C14.8732 11.837 14.6098 11.2011 14.1409 10.7322C13.6721 10.2634 13.0362 10 12.3732 10Z" fill="#D9B8B4"/>
</svg>
