<svg width="29" height="29" viewBox="0 0 29 29" fill="none" xmlns="http://www.w3.org/2000/svg">
<path d="M3.63804 29H25.3668C26.3665 29 27.22 28.646 27.9273 27.938C28.6346 27.23 28.9883 26.3757 28.9883 25.375V3.625C28.9883 2.62435 28.6346 1.77002 27.9273 1.06201C27.22 0.354004 26.3665 0 25.3668 0H3.63804C2.63836 0 1.78487 0.354004 1.07755 1.06201C0.370234 1.77002 0.0165749 2.62435 0.0165749 3.625V25.375C0.0165749 26.3757 0.370234 27.23 1.07755 27.938C1.78487 28.646 2.63836 29 3.63804 29ZM19.9346 20.8438C19.9346 20.5983 20.0242 20.3859 20.2034 20.2065C20.3826 20.0272 20.5948 19.9375 20.84 19.9375H22.6507C22.8959 19.9375 23.1081 20.0272 23.2873 20.2065C23.4665 20.3859 23.5561 20.5983 23.5561 20.8438V24.4688C23.5561 24.7142 23.4665 24.9266 23.2873 25.106C23.1081 25.2853 22.8959 25.375 22.6507 25.375H20.84C20.5948 25.375 20.3826 25.2853 20.2034 25.106C20.0242 24.9266 19.9346 24.7142 19.9346 24.4688V20.8438ZM12.6917 13.5938C12.6917 13.3483 12.7813 13.1359 12.9605 12.9565C13.1397 12.7772 13.3519 12.6875 13.5971 12.6875H15.4078C15.653 12.6875 15.8652 12.7772 16.0444 12.9565C16.2236 13.1359 16.3132 13.3483 16.3132 13.5938V24.4688C16.3132 24.7142 16.2236 24.9266 16.0444 25.106C15.8652 25.2853 15.653 25.375 15.4078 25.375H13.5971C13.3519 25.375 13.1397 25.2853 12.9605 25.106C12.7813 24.9266 12.6917 24.7142 12.6917 24.4688V13.5938ZM5.44877 4.53125C5.44877 4.28581 5.53836 4.0734 5.71755 3.89404C5.89674 3.71468 6.10893 3.625 6.35414 3.625H8.16487C8.41007 3.625 8.62226 3.71468 8.80145 3.89404C8.98064 4.0734 9.07023 4.28581 9.07023 4.53125V24.4688C9.07023 24.7142 8.98064 24.9266 8.80145 25.106C8.62226 25.2853 8.41007 25.375 8.16487 25.375H6.35414C6.10893 25.375 5.89674 25.2853 5.71755 25.106C5.53836 24.9266 5.44877 24.7142 5.44877 24.4688V4.53125Z" fill="#D9B8B4"/>
</svg>
