<svg width="25" height="28" viewBox="0 0 25 28" fill="none" xmlns="http://www.w3.org/2000/svg">
<path d="M19.4444 0V2.8H23.6208C24.3819 2.8 25 3.423 25 4.1902V26.6098C24.9996 26.9784 24.8542 27.3318 24.5956 27.5924C24.3371 27.853 23.9865 27.9996 23.6208 28H1.37917C1.0135 27.9996 0.662919 27.853 0.404355 27.5924C0.14579 27.3318 0.000367687 26.9784 0 26.6098V4.1902C0 3.423 0.618056 2.8 1.37917 2.8H5.55556V0H19.4444ZM5.55556 5.6H2.77778V25.2H22.2222V5.6H19.4444V8.4H5.55556V5.6ZM8.33333 19.6V22.4H5.55556V19.6H8.33333ZM8.33333 15.4V18.2H5.55556V15.4H8.33333ZM8.33333 11.2V14H5.55556V11.2H8.33333ZM16.6667 2.8H8.33333V5.6H16.6667V2.8Z" fill="#D9B8B4"/>
</svg>
